<?xml version="1.0" standalone="no"?>
<!DOCTYPE svg PUBLIC "-//W3C//DTD SVG 20010904//EN"
 "http://www.w3.org/TR/2001/REC-SVG-20010904/DTD/svg10.dtd">
<svg version="1.0" xmlns="http://www.w3.org/2000/svg"
 width="300.000000pt" height="300.000000pt" viewBox="0 0 300.000000 300.000000"
 preserveAspectRatio="xMidYMid meet">
<metadata>
Created by potrace 1.10, written by Peter Selinger 2001-2011
</metadata>
<g transform="translate(0.000000,300.000000) scale(0.100000,-0.100000)"
fill="#000000" stroke="none">
<path d="M351 2024 c-12 -15 -21 -34 -21 -43 -1 -9 -2 -40 -4 -68 l-3 -52 16
32 c12 22 15 41 9 60 -7 29 9 80 22 72 5 -3 10 2 14 10 9 24 -11 17 -33 -11z"/>
<path d="M2790 2021 c0 -5 7 -12 16 -15 20 -8 16 -86 -6 -103 -8 -6 -11 -15
-7 -20 27 -26 50 85 27 128 -11 19 -30 26 -30 10z"/>
<path d="M362 1970 c0 -19 2 -27 5 -17 2 9 2 25 0 35 -3 9 -5 1 -5 -18z"/>
<path d="M1297 1976 c-71 -26 -176 -110 -177 -141 0 -5 16 8 36 29 95 103 202
136 325 100 74 -22 123 -49 172 -92 66 -59 86 -70 42 -23 -107 114 -279 169
-398 127z"/>
<path d="M2011 1986 c2 -2 22 -6 44 -9 27 -4 35 -3 25 3 -14 9 -79 15 -69 6z"/>
<path d="M2791 1975 c-1 -11 -4 -31 -6 -45 l-6 -25 11 25 c6 13 9 33 7 45 -4
19 -4 19 -6 0z"/>
<path d="M2116 1945 c24 -39 24 -40 24 -28 0 6 -9 21 -21 34 l-20 24 17 -30z"/>
<path d="M440 1930 c0 -27 -45 -56 -64 -41 -11 10 -16 8 -21 -8 -14 -45 -31
-43 -65 10 -28 43 -34 49 -42 34 -6 -9 -8 -34 -6 -56 2 -27 0 -39 -9 -39 -7 0
-13 -5 -13 -10 0 -6 10 -8 23 -5 29 8 42 -8 51 -58 4 -21 10 -46 13 -54 5 -12
2 -15 -9 -11 -9 4 -15 0 -15 -8 0 -18 8 -18 33 1 10 8 26 15 35 15 9 0 28 9
42 20 27 21 72 27 82 10 3 -5 12 -10 18 -10 22 1 -27 30 -50 30 -21 0 -22 4
-20 52 2 46 -1 53 -18 55 -18 2 -18 1 -1 -4 28 -8 15 -90 -19 -120 -29 -25
-55 -30 -55 -10 0 9 -2 9 -8 0 -4 -6 -8 10 -9 35 -2 50 17 92 42 92 8 0 15 4
15 9 0 5 11 12 25 15 14 4 34 15 45 26 21 21 27 50 10 50 -5 0 -10 -9 -10 -20z
m-140 -76 c15 -45 5 -58 -25 -32 -19 16 -25 32 -25 61 0 39 0 40 20 22 10 -9
24 -33 30 -51z"/>
<path d="M2690 1928 c0 -12 12 -35 28 -51 17 -18 22 -28 12 -27 -32 5 -38 -1
-49 -46 -7 -26 -10 -48 -8 -51 3 -2 9 16 16 40 8 35 16 46 34 49 24 5 35 -4
72 -57 13 -18 14 -18 15 -2 0 10 15 32 33 49 22 21 25 27 10 19 -12 -6 -25
-17 -30 -23 -5 -9 -9 -5 -14 12 -6 22 -7 21 -8 -10 l-1 -34 -16 22 c-9 13 -16
39 -16 58 0 29 -6 39 -31 55 -41 24 -47 24 -47 -3z m61 -17 c1 -3 3 -16 4 -28
2 -19 -1 -21 -16 -12 -19 10 -39 40 -39 58 0 11 49 -6 51 -18z"/>
<path d="M379 1923 c-13 -15 -12 -15 11 -3 34 17 36 20 18 20 -9 0 -22 -7 -29
-17z"/>
<path d="M1820 1891 c-50 -52 -73 -135 -73 -266 l0 -100 -45 -57 c-25 -32 -51
-58 -59 -58 -16 0 -32 37 -40 97 -5 39 -3 43 19 52 69 26 92 129 36 161 -25
13 -31 13 -55 0 -35 -19 -71 -90 -79 -155 -6 -50 -47 -135 -64 -135 -15 0 -21
17 -29 96 -5 45 -15 83 -24 91 -22 22 -62 9 -84 -27 -9 -17 -20 -30 -24 -30
-3 0 -9 25 -12 56 -3 32 -13 64 -23 75 -26 29 -71 24 -105 -12 l-29 -31 0 47
c0 46 0 47 -27 40 -16 -4 -29 -8 -30 -9 -2 -1 -6 -49 -9 -107 -6 -87 -12 -115
-39 -175 -18 -39 -37 -74 -43 -78 -13 -8 -28 41 -48 154 -20 113 -21 110 31
110 25 0 45 5 45 10 0 6 -22 10 -49 10 l-49 0 -7 118 c-8 140 -9 144 -36 140
-17 -2 -31 -26 -67 -121 -45 -116 -46 -117 -76 -115 -60 3 -91 -2 -125 -23
-48 -29 -22 -43 33 -18 42 19 106 26 106 11 0 -5 -18 -64 -40 -132 -42 -130
-48 -164 -27 -158 6 3 32 68 57 146 45 141 45 142 75 142 30 0 30 -1 47 -89
22 -113 58 -197 92 -212 42 -19 72 -4 92 46 20 47 34 58 34 26 0 -18 36 -36
44 -22 3 4 8 32 12 62 10 78 51 203 73 223 19 17 20 17 32 -6 7 -13 14 -76 17
-145 4 -107 7 -123 22 -123 12 0 21 17 34 63 37 134 69 164 79 74 3 -29 12
-70 21 -91 14 -34 19 -37 48 -34 25 2 39 12 57 40 l24 38 18 -39 c19 -43 44
-61 84 -61 39 0 59 14 94 66 26 39 32 44 37 28 30 -93 54 -124 98 -124 36 0
72 32 96 85 l13 30 7 -32 c11 -50 28 -64 69 -61 32 3 38 8 62 57 l26 55 10
-31 c28 -79 108 -99 161 -39 40 46 92 122 92 135 0 24 -20 7 -68 -57 -64 -86
-78 -98 -96 -83 -13 11 -40 120 -32 129 3 2 19 11 37 20 38 19 65 76 55 115
-9 36 -48 53 -85 37 -36 -15 -81 -97 -81 -147 0 -35 -63 -173 -79 -173 -18 0
-24 44 -23 167 1 114 0 123 -18 123 -14 0 -21 -12 -29 -50 -6 -28 -11 -63 -11
-78 0 -51 -74 -182 -102 -182 -12 0 -34 56 -43 106 -5 36 -2 48 28 95 89 142
119 289 68 330 -35 28 -60 23 -101 -20z m80 -26 c9 -26 9 -48 1 -86 -14 -66
-70 -199 -83 -199 -13 0 -1 151 17 217 30 110 46 127 65 68z m-1065 -150 c0
-50 -2 -55 -22 -55 -13 0 -23 4 -23 8 0 17 32 102 38 102 4 0 7 -25 7 -55z
m815 -60 c0 -22 -9 -43 -26 -62 l-25 -28 5 42 c12 89 46 124 46 48z m601 -26
c-7 -21 -21 -43 -31 -49 -11 -6 -20 -8 -20 -5 0 19 24 102 33 113 19 24 31
-16 18 -59z m-1134 -29 c-1 -10 -4 -17 -8 -14 -4 2 -7 13 -6 24 1 10 4 17 8
14 4 -2 7 -13 6 -24z"/>
<path d="M703 1871 c-81 -52 -190 -189 -200 -251 -1 -8 -7 -37 -13 -65 -6 -27
-9 -79 -8 -115 2 -50 0 -64 -10 -62 -8 1 -11 -2 -8 -7 9 -14 -39 -22 -84 -15
-24 4 -40 12 -40 20 0 8 -4 14 -8 14 -5 0 -9 -7 -9 -15 0 -8 4 -15 9 -15 5 0
7 -4 4 -9 -5 -8 3 -9 89 -11 22 -1 51 -8 65 -16 l25 -15 -24 21 c-21 18 -22
23 -10 31 21 13 24 12 37 -23 25 -69 123 -148 212 -170 19 -5 116 -13 215 -18
99 -5 215 -12 257 -16 42 -4 85 -4 95 0 17 7 17 8 0 17 -9 6 -23 7 -29 3 -14
-9 -73 -7 -178 6 -41 5 -136 11 -210 14 -76 2 -148 9 -165 16 -16 7 -36 14
-43 16 -32 6 -116 83 -138 125 -25 50 -29 69 -28 171 1 83 5 104 27 150 51
102 161 209 252 245 30 11 30 11 4 12 -14 1 -53 -16 -86 -38z"/>
<path d="M935 1886 c11 -8 25 -16 30 -16 11 0 55 -22 101 -51 18 -11 35 -16
38 -10 7 10 -112 73 -159 85 -29 7 -29 7 -10 -8z"/>
<path d="M2889 1878 c0 -2 -3 -16 -5 -33 -6 -41 -25 -75 -41 -75 -18 0 -16 9
5 34 l17 21 -23 -19 c-12 -11 -20 -26 -18 -33 3 -7 1 -13 -4 -13 -6 0 -13 0
-17 -1 -8 0 -24 -32 -29 -58 -7 -38 -56 -29 -75 13 -14 29 -63 48 -95 36 -36
-14 -29 -21 14 -14 34 5 42 2 63 -22 56 -65 79 -65 118 1 24 42 46 53 72 36
11 -6 19 -7 19 -2 0 6 -5 13 -10 16 -6 4 -7 13 -1 23 11 22 24 92 16 92 -3 0
-5 -1 -6 -2z"/>
<path d="M2221 1826 c12 -10 60 -16 54 -6 -3 5 -18 10 -32 10 -15 0 -24 -2
-22 -4z"/>
<path d="M187 1803 c-4 -3 -7 -28 -7 -54 0 -36 5 -51 20 -62 19 -14 19 -14 -6
-26 -15 -6 -24 -14 -21 -18 4 -3 13 0 21 6 9 8 29 10 53 6 l38 -6 -48 26 c-47
26 -48 26 -46 73 2 26 7 50 13 54 8 6 8 8 0 8 -6 0 -14 -3 -17 -7z"/>
<path d="M2002 1748 c2 -15 10 -23 23 -23 30 0 27 39 -3 43 -20 3 -23 0 -20
-20z"/>
<path d="M2904 1733 c7 -13 -7 -78 -22 -100 -4 -7 -29 -16 -54 -19 -40 -6 -46
-4 -51 15 -3 11 -11 21 -18 21 -10 0 -10 -3 -1 -12 14 -14 16 -38 3 -38 -5 0
-11 9 -14 21 -3 12 -10 18 -17 14 -6 -3 -9 -2 -8 3 4 14 -2 15 -45 7 -27 -5
-44 -3 -63 10 -14 9 -28 14 -31 12 -9 -10 57 -38 98 -41 42 -4 92 -36 56 -36
-9 0 -17 5 -17 10 0 6 -5 10 -11 10 -5 0 -7 -4 -4 -10 3 -5 -12 -21 -35 -35
-22 -14 -40 -30 -40 -36 0 -5 10 0 22 11 12 11 28 18 36 15 7 -2 10 -1 7 4 -8
15 15 25 56 25 21 0 36 3 33 8 -11 17 62 -5 79 -24 13 -16 17 -17 17 -5 0 9
-10 23 -22 31 -22 16 -22 16 -1 16 26 0 38 14 54 68 10 35 10 45 -1 55 -10 9
-11 9 -6 0z"/>
<path d="M2540 1715 c-10 -12 -10 -23 1 -53 18 -47 91 -88 130 -73 23 9 22 10
-9 10 -50 1 -92 28 -109 69 -14 33 -14 37 3 49 10 7 13 13 7 13 -6 0 -16 -7
-23 -15z"/>
<path d="M333 1673 c-13 -8 -23 -18 -23 -22 0 -10 139 -13 156 -3 11 6 -2 8
-36 4 -39 -3 -51 -2 -46 7 4 6 4 11 -1 10 -4 -1 -15 -1 -23 0 -13 1 -13 2 0
11 8 5 11 10 5 9 -5 0 -20 -7 -32 -16z"/>
<path d="M76 1652 c-3 -5 3 -25 13 -45 18 -36 18 -36 -3 -40 -11 -2 -1 -5 24
-5 35 -1 40 1 23 8 -21 9 -49 47 -40 56 7 7 37 -8 32 -16 -3 -4 1 -7 8 -6 6 0
13 -3 14 -7 1 -4 8 -19 17 -32 15 -23 15 -24 -12 -28 l-27 -4 28 -2 c22 -1 27
-6 27 -25 0 -13 2 -30 5 -38 4 -9 -4 -13 -25 -14 -40 -1 -66 -27 -75 -71 -8
-43 18 -99 49 -107 20 -5 20 -4 3 9 -14 10 -15 15 -5 21 7 5 22 8 33 7 12 -1
14 0 4 3 -8 3 -21 20 -27 38 -37 101 17 123 106 43 17 -16 19 -23 10 -29 -10
-6 -10 -10 2 -18 13 -9 9 -15 -20 -41 -19 -16 -45 -32 -57 -35 -13 -4 -23 -12
-23 -20 0 -7 -10 -20 -22 -29 -22 -14 -23 -14 -31 10 -5 14 -15 25 -23 25 -8
0 -14 5 -14 10 0 19 -16 10 -34 -21 -10 -17 -16 -31 -14 -33 1 -1 12 -8 23
-16 20 -15 20 -15 0 9 -18 22 -18 24 -2 18 11 -4 16 -3 12 3 -9 15 4 30 20 24
8 -4 13 -10 10 -14 -3 -5 0 -12 6 -16 9 -5 6 -11 -7 -22 -18 -14 -18 -14 -1
-8 11 3 30 9 43 12 13 3 24 11 25 18 0 6 7 -10 15 -35 9 -31 22 -49 39 -57 39
-18 44 -14 9 7 -25 15 -34 29 -39 61 -4 27 -3 46 4 53 8 8 11 3 11 -20 0 -18
5 -35 10 -38 6 -3 10 -15 10 -26 0 -10 5 -19 10 -19 15 0 12 23 -5 46 -25 33
-18 66 19 96 26 21 36 24 46 15 7 -7 10 -7 8 -2 -7 11 17 37 25 28 3 -3 3 -12
0 -21 -4 -13 -3 -14 5 -3 8 11 11 11 18 0 5 -8 9 -18 9 -23 0 -5 13 -10 29
-11 17 0 36 -10 47 -24 11 -13 19 -19 19 -13 0 14 -49 52 -67 52 -10 0 -13 6
-9 16 3 8 2 12 -4 9 -11 -7 -40 18 -40 34 0 21 -21 21 -28 0 -7 -18 -10 -19
-15 -6 -3 9 3 27 14 40 10 14 19 31 19 39 0 7 -6 4 -12 -7 -6 -11 -12 -22 -14
-24 -6 -7 -69 51 -82 75 -7 13 -13 42 -15 64 -1 22 -5 40 -10 40 -4 0 -6 3 -6
8 5 32 -3 47 -27 48 -14 1 -33 9 -44 19 -10 9 -21 12 -24 7z m56 -308 c4 -5 2
-16 -3 -24 -16 -25 -41 17 -33 55 10 48 18 53 24 15 4 -20 9 -40 12 -46z"/>
<path d="M283 1628 c-2 -5 1 -8 6 -8 18 0 13 -28 -6 -39 -15 -9 -16 -10 -2
-11 9 0 21 11 27 25 6 14 16 25 22 25 5 0 10 3 10 8 0 4 -12 7 -26 7 -14 0
-28 -3 -31 -7z"/>
<path d="M373 1609 c27 -20 57 -67 57 -89 0 -5 -7 -10 -16 -10 -9 0 -29 -14
-45 -31 l-29 -31 0 33 c0 45 -6 34 -14 -26 l-6 -50 44 49 c41 44 48 48 78 42
24 -4 28 -3 17 4 -9 5 -20 22 -24 37 -3 16 -14 36 -22 46 -15 16 -14 17 18 17
19 0 41 4 48 9 10 6 1 8 -26 4 -23 -3 -57 0 -75 6 l-33 11 28 -21z"/>
<path d="M229 1573 c-22 -24 -26 -31 -11 -20 21 14 59 57 50 57 -2 0 -20 -16
-39 -37z"/>
<path d="M366 1575 c16 -22 29 -42 31 -44 2 -2 3 0 3 5 0 5 -14 25 -31 44
l-30 35 27 -40z"/>
<path d="M30 1583 c0 -17 40 -72 62 -87 13 -8 37 -17 53 -20 26 -6 25 -4 -10
13 -45 21 -87 62 -83 81 2 7 -3 15 -9 17 -7 3 -13 1 -13 -4z"/>
<path d="M2602 1560 c-12 -12 -22 -27 -22 -35 0 -8 -9 -15 -19 -15 -28 0 -51
-10 -51 -23 0 -7 4 -7 12 1 35 35 95 -1 118 -70 12 -38 30 -51 30 -22 0 8 -4
13 -9 9 -6 -3 -13 10 -17 30 -3 19 -17 44 -30 54 -31 25 -30 45 4 70 15 11 22
21 16 21 -5 0 -20 -9 -32 -20z"/>
<path d="M2731 1533 c0 -21 3 -32 6 -25 7 19 34 14 61 -10 l25 -23 -18 28
c-11 17 -26 27 -41 27 -25 0 -34 24 -11 33 7 3 5 6 -5 6 -14 1 -18 -7 -17 -36z"/>
<path d="M2965 1540 c-3 -5 -3 -10 1 -10 4 0 -3 -11 -16 -25 -13 -14 -35 -25
-49 -25 -24 -1 -24 -2 8 -15 18 -8 42 -15 53 -15 18 0 19 -2 7 -17 -39 -46
-143 -54 -137 -10 3 23 16 25 58 12 34 -10 21 1 -21 19 -33 13 -35 13 -53 -12
-11 -14 -14 -22 -8 -18 7 4 12 3 12 -2 0 -15 -44 -50 -85 -66 -36 -15 -41 -15
-51 -1 -7 9 -18 13 -28 9 -9 -3 -23 -1 -30 5 -11 9 -16 9 -22 0 -4 -7 -3 -9 3
-6 6 4 13 0 17 -8 7 -20 -42 -20 -89 -1 -43 18 -58 46 -45 83 9 26 9 27 -5 9
-17 -22 -20 -66 -5 -66 6 0 10 -4 10 -10 0 -5 -6 -10 -14 -10 -7 0 -20 -7 -27
-17 -13 -15 -12 -15 10 -4 13 8 34 10 50 6 14 -4 48 -10 75 -13 59 -8 68 -24
25 -43 -18 -7 -28 -14 -22 -16 5 -2 22 3 38 11 16 8 32 13 37 10 4 -3 8 4 8
15 0 15 -7 21 -22 21 -22 1 -22 1 -4 15 14 11 23 12 33 4 20 -17 16 -57 -7
-69 -11 -6 -20 -16 -20 -23 0 -8 3 -8 9 2 9 13 18 7 59 -43 21 -26 14 -60 -18
-88 -34 -30 -41 -68 -12 -68 25 0 57 37 72 83 9 29 17 37 36 37 13 0 38 13 55
28 27 24 32 36 33 75 1 52 -23 87 -62 90 -12 1 -21 6 -19 12 4 10 12 10 68 -2
27 -5 78 16 112 45 26 23 21 32 -18 32 -19 0 -35 5 -35 10 0 6 4 10 9 10 15 0
52 58 42 64 -5 4 -12 2 -16 -4z m-111 -202 c26 -37 20 -90 -12 -121 -40 -38
-77 -36 -119 9 -29 31 -33 41 -27 68 3 17 7 32 8 32 17 15 70 33 98 34 27 0
41 -6 52 -22z m-104 -177 c0 -29 -42 -91 -61 -91 -17 0 -9 20 21 52 17 17 30
39 30 49 0 11 2 19 5 19 3 0 5 -13 5 -29z"/>
<path d="M2850 1310 c-1 -18 -40 -65 -61 -73 -11 -4 -10 -6 3 -6 9 -1 19 -9
21 -18 3 -13 5 -12 6 5 0 13 11 36 22 51 12 16 19 35 16 43 -4 10 -6 10 -7 -2z"/>
<path d="M2461 1516 c7 -15 15 -23 17 -16 3 7 -3 19 -13 28 -15 16 -16 15 -4
-12z"/>
<path d="M2869 1513 c-8 -14 -19 -21 -27 -18 -13 5 -13 3 -1 -11 12 -14 14
-14 26 3 8 10 16 17 18 16 3 -2 5 0 5 5 -1 4 14 9 32 12 l33 6 -37 5 c-31 4
-39 1 -49 -18z"/>
<path d="M2541 1458 c2 -2 17 -14 32 -28 21 -18 26 -20 21 -7 -6 17 -34 37
-50 37 -4 0 -5 -1 -3 -2z"/>
<path d="M423 1300 c52 -33 68 -69 47 -104 -12 -19 -12 -20 4 -7 12 10 16 25
14 43 -4 24 -1 28 21 29 25 1 25 1 -4 8 -16 4 -48 20 -69 34 -21 15 -44 27
-49 27 -6 0 10 -13 36 -30z"/>
<path d="M2395 1309 c-16 -11 -23 -19 -15 -16 8 2 30 -2 48 -10 23 -10 38 -11
46 -4 7 6 37 17 67 25 32 9 44 15 29 15 -14 1 -46 -6 -71 -15 -29 -11 -57 -14
-74 -10 -26 7 -27 8 -9 21 29 22 13 17 -21 -6z"/>
<path d="M300 1251 c0 -24 -7 -58 -16 -77 -9 -19 -14 -37 -12 -40 10 -9 38 65
39 103 l1 38 8 -34 c5 -19 6 -39 4 -46 -3 -6 0 -22 5 -36 8 -21 10 -21 11 -4
1 19 1 19 14 3 7 -10 28 -20 47 -23 l34 -5 -32 10 c-18 6 -37 19 -43 31 -6 11
-14 18 -18 15 -4 -2 -8 15 -9 37 -2 23 -10 48 -18 56 -13 14 -15 11 -15 -28z"/>
<path d="M2600 1220 c-7 -17 -28 -44 -47 -61 -40 -35 -40 -50 0 -18 15 11 27
16 27 10 0 -5 -4 -12 -9 -15 -5 -3 -7 -14 -5 -24 3 -9 -2 -26 -11 -37 -13 -16
-16 -16 -11 -3 3 11 0 15 -7 12 -7 -2 -13 -13 -13 -24 0 -10 4 -17 7 -14 4 2
10 0 14 -6 3 -5 12 -10 18 -10 7 0 6 4 -3 10 -12 7 -12 12 3 28 10 11 20 41
23 67 2 26 12 61 20 78 16 30 17 30 32 11 13 -17 14 -17 8 -1 -3 10 -6 21 -6
23 0 2 -6 4 -14 4 -7 0 -19 -14 -26 -30z"/>
<path d="M2615 1200 c-11 -50 -3 -114 17 -128 24 -18 15 -29 -33 -42 -23 -6
-38 -14 -35 -17 6 -6 96 25 96 33 0 3 -10 18 -21 34 -19 24 -21 38 -16 89 6
66 2 79 -8 31z"/>
<path d="M1802 1169 c-19 -22 -53 -52 -75 -67 -39 -25 -50 -27 -142 -26 -98 0
-115 4 -217 48 -21 9 -38 14 -38 11 0 -12 109 -54 169 -66 149 -29 260 9 326
114 25 38 16 33 -23 -14z"/>
<path d="M2440 1191 c0 -5 -8 -11 -17 -13 -13 -2 -10 -6 10 -15 16 -8 27 -9
27 -3 0 6 -4 10 -10 10 -5 0 -7 7 -4 15 4 8 3 15 0 15 -3 0 -6 -4 -6 -9z"/>
<path d="M108 1173 c-8 -10 -18 -25 -22 -33 -4 -8 1 -5 12 7 11 12 22 20 24
18 3 -3 5 2 5 10 0 19 -1 19 -19 -2z"/>
<path d="M46 1168 c3 -4 0 -8 -7 -8 -7 0 -10 -2 -7 -5 7 -7 38 5 38 14 0 4 -7
8 -15 8 -8 0 -12 -4 -9 -9z"/>
<path d="M429 1157 c18 -19 33 -27 55 -26 l31 2 -35 6 c-31 6 -33 8 -13 14 14
5 33 3 49 -6 l28 -14 -23 -13 c-13 -6 -33 -9 -45 -6 -15 4 -25 -1 -34 -14 -6
-10 -27 -22 -47 -26 -19 -3 -33 -10 -30 -14 8 -13 85 -21 103 -11 13 8 7 11
-28 11 -25 1 -38 4 -30 7 8 3 23 12 32 21 15 13 20 13 35 1 9 -8 14 -9 10 -3
-3 6 9 16 29 23 18 7 34 16 34 21 0 16 -56 39 -86 36 -16 -2 -36 1 -44 7 -8 6
-4 -1 9 -16z"/>
<path d="M2342 1173 c-8 -3 1 -15 24 -34 20 -16 31 -29 24 -29 -7 0 -11 -2 -8
-5 10 -11 58 18 57 34 0 10 -2 12 -6 4 -7 -19 -31 -16 -59 6 -17 13 -20 21
-12 24 7 3 9 5 3 5 -5 0 -16 -2 -23 -5z"/>
<path d="M2860 1161 c0 -5 -9 -11 -20 -14 -26 -7 -36 -35 -22 -58 7 -10 12
-25 12 -33 0 -8 7 -17 16 -20 25 -9 27 -7 9 10 -13 14 -14 19 -3 25 10 7 9 9
-4 9 -17 0 -33 33 -24 49 3 5 14 11 25 14 21 5 36 -17 24 -35 -3 -6 -1 -8 4
-5 6 4 13 -6 15 -23 3 -16 1 -32 -4 -34 -5 -2 -3 -3 4 -2 15 4 14 35 -3 89
-11 33 -29 51 -29 28z"/>
<path d="M340 1109 c0 -13 -4 -18 -12 -13 -6 4 -8 3 -4 -4 3 -6 -1 -15 -11
-20 -13 -8 -26 -4 -52 16 l-36 25 33 -32 c32 -32 33 -32 59 -16 23 15 25 16
20 2 -3 -9 -1 -20 6 -24 15 -9 53 -16 45 -7 -3 3 -14 7 -25 8 -19 3 -22 33 -8
69 4 10 3 17 -4 17 -6 0 -11 -9 -11 -21z"/>
<path d="M2286 1102 c-3 -5 9 -6 27 -4 25 3 29 2 20 -8 -6 -7 -28 -11 -51 -8
-22 2 -38 0 -36 -4 8 -13 88 -8 107 6 16 12 16 14 1 20 -22 9 -62 7 -68 -2z"/>
<path d="M2772 1079 c-7 -11 -11 -24 -8 -27 3 -3 6 0 6 6 0 7 5 12 10 12 6 0
10 -6 10 -14 0 -8 5 -18 12 -22 7 -4 8 -3 4 4 -4 7 -2 12 5 12 9 0 7 4 -3 13
-9 6 -17 18 -19 25 -3 8 -9 5 -17 -9z"/>
<path d="M512 1061 c23 -31 42 -41 76 -41 30 0 33 2 22 16 -19 22 -51 37 -82
39 -24 2 -26 -1 -16 -14z m68 -16 l25 -14 -26 -1 c-15 0 -32 7 -39 15 -17 20
5 20 40 0z"/>
<path d="M2063 1063 c15 -2 37 -2 50 0 12 2 0 4 -28 4 -27 0 -38 -2 -22 -4z"/>
<path d="M2392 1065 c10 -11 68 -23 68 -15 0 4 -10 10 -22 14 -29 7 -53 8 -46
1z"/>
<path d="M2479 1052 c6 -11 7 -22 4 -26 -3 -3 -1 -6 5 -6 43 0 -22 -70 -83
-90 -19 -6 -40 -21 -46 -32 -7 -13 -17 -18 -30 -15 -10 3 -17 1 -14 -3 3 -5
-4 -14 -15 -20 -15 -8 -25 -7 -44 5 -14 9 -39 15 -57 13 -30 -3 -31 -4 -14
-18 11 -9 16 -10 11 -2 -8 13 20 17 48 6 13 -5 14 -9 5 -20 -6 -8 -8 -14 -4
-14 5 0 0 -10 -11 -22 -17 -21 -16 -21 9 1 28 25 36 16 16 -20 -6 -12 -17 -18
-25 -15 -8 3 -14 -1 -14 -9 0 -8 4 -15 8 -15 17 0 52 47 52 69 0 15 10 26 33
37 17 8 50 26 71 40 27 18 37 21 33 11 -3 -9 -1 -17 6 -20 8 -2 7 -12 -2 -35
-7 -17 -17 -29 -22 -26 -5 3 -9 1 -9 -5 0 -5 4 -12 8 -15 14 -8 43 65 38 93
-5 22 1 30 35 54 34 23 40 25 38 10 -1 -10 5 -35 14 -55 12 -29 22 -38 39 -38
25 0 48 17 48 34 0 6 -5 3 -11 -6 -13 -23 -46 -23 -58 1 -6 10 -12 36 -15 57
-2 21 -5 40 -7 42 -3 3 -6 21 -8 37 0 8 -10 19 -22 25 -18 10 -19 10 -10 -8z"/>
<path d="M263 1033 c4 -3 -2 -12 -13 -20 -11 -8 -20 -24 -19 -36 l0 -22 9 22
c19 48 99 69 85 22 -4 -11 -2 -19 4 -19 6 0 11 5 11 10 0 6 4 10 9 10 5 0 6
-15 1 -34 -4 -19 -4 -40 1 -47 6 -9 9 0 9 26 0 38 1 39 15 18 15 -21 14 -90
-1 -114 -3 -5 -1 -9 5 -9 5 0 12 10 14 23 4 20 4 20 6 -3 0 -15 -5 -32 -11
-40 -11 -12 -10 -12 6 0 15 12 17 23 12 65 l-6 50 20 -25 c11 -14 20 -34 20
-45 0 -16 2 -17 9 -5 6 8 7 18 5 22 -11 18 76 -8 88 -26 5 -8 11 -7 20 2 8 8
9 12 1 12 -7 0 -24 5 -39 10 -26 10 -26 11 -8 24 23 17 19 22 -26 30 -33 5
-34 5 -7 -5 31 -12 27 -29 -8 -29 -26 0 -99 64 -109 96 -3 11 -21 25 -39 32
-36 13 -75 16 -64 5z"/>
<path d="M449 1015 c29 -13 32 -18 27 -42 -5 -28 -5 -28 6 -4 11 20 9 26 -11
42 -13 11 -31 19 -40 19 -9 -1 -1 -7 18 -15z"/>
<path d="M2367 1023 c-4 -3 -7 -18 -7 -31 0 -32 13 -20 15 13 1 28 1 28 -8 18z"/>
<path d="M2408 1023 c12 -2 30 -2 40 0 9 3 -1 5 -23 4 -22 0 -30 -2 -17 -4z"/>
<path d="M2550 993 c20 -8 49 -45 50 -62 0 -8 3 -12 6 -8 17 17 -26 78 -54 76
-14 0 -14 -2 -2 -6z"/>
<path d="M302 950 c-14 -23 -41 -26 -62 -7 -12 10 -12 9 -1 -5 7 -10 21 -18
31 -18 17 0 57 36 49 45 -3 2 -10 -5 -17 -15z"/>
<path d="M2300 943 c0 -8 7 -16 16 -20 11 -4 12 -8 4 -13 -8 -5 -6 -9 6 -14
10 -4 15 -4 11 0 -4 4 1 13 11 21 14 12 14 14 1 10 -9 -3 -22 -2 -29 3 -9 6
-7 10 9 15 13 4 29 1 39 -7 15 -12 16 -11 3 5 -16 20 -71 20 -71 0z"/>
<path d="M2470 919 c0 -4 -3 -15 -7 -25 -8 -22 13 -10 26 15 7 13 6 18 -5 18
-7 0 -14 -4 -14 -8z"/>
<path d="M460 862 c0 -18 19 -24 37 -13 10 6 13 11 6 11 -6 0 -18 3 -27 6 -9
3 -16 1 -16 -4z"/>
<path d="M2350 840 c0 -5 -9 -19 -21 -31 -11 -11 -18 -23 -15 -27 6 -6 27 17
47 51 6 11 6 17 -1 17 -5 0 -10 -4 -10 -10z"/>
<path d="M495 830 c5 -8 10 -32 10 -53 1 -22 8 -44 19 -55 17 -16 18 -16 2 15
-18 36 -21 67 -6 58 6 -4 7 -12 4 -18 -4 -7 2 -3 13 8 17 17 18 20 4 24 -9 1
-25 10 -35 20 -15 12 -17 13 -11 1z"/>
<path d="M441 820 c1 -24 15 -55 21 -44 2 5 -1 20 -8 34 -8 14 -13 18 -13 10z"/>
<path d="M2144 815 c-15 -11 -16 -14 -3 -15 8 0 21 6 28 13 11 10 13 10 7 0
-9 -17 3 -16 34 2 l25 14 -36 1 c-19 0 -44 -7 -55 -15z"/>
<path d="M585 810 c-3 -5 1 -10 9 -10 8 0 18 5 21 10 3 6 -1 10 -9 10 -8 0
-18 -4 -21 -10z"/>
<path d="M566 769 c9 -10 21 -16 25 -13 5 3 9 0 9 -6 0 -6 5 -8 10 -5 6 3 10
1 10 -4 0 -6 5 -11 10 -11 24 0 -9 33 -44 45 -36 13 -37 13 -20 -6z"/>
<path d="M674 765 c-9 -23 3 -45 26 -45 11 0 20 4 20 9 0 5 -8 8 -17 7 -10 0
-18 6 -18 14 0 9 7 14 18 12 9 -2 17 2 17 8 0 16 -40 12 -46 -5z"/>
<path d="M742 750 c1 -31 12 -40 21 -17 4 10 6 10 6 0 2 -26 16 -12 18 17 2
26 -1 30 -22 30 -20 0 -24 -5 -23 -30z"/>
<path d="M810 750 c0 -25 4 -30 23 -29 21 0 21 1 2 8 -20 8 -20 8 0 13 16 5
17 6 3 7 -10 0 -18 5 -18 10 0 5 8 12 18 14 13 4 11 5 -5 6 -19 1 -23 -4 -23
-29z"/>
<path d="M880 754 c-13 -33 -14 -32 15 -30 17 1 23 6 20 14 -3 8 -5 20 -5 28
0 23 -20 16 -30 -12z"/>
<path d="M944 765 c-9 -23 3 -45 26 -45 11 0 20 4 20 10 0 5 -7 7 -15 4 -11
-4 -15 0 -15 16 0 16 4 20 15 16 8 -3 15 -1 15 4 0 16 -40 11 -46 -5z"/>
<path d="M1018 750 c2 -16 6 -30 8 -30 2 0 4 14 4 30 0 17 -4 30 -8 30 -5 0
-7 -13 -4 -30z"/>
<path d="M1054 766 c-10 -26 4 -48 28 -44 17 2 23 10 23 28 0 18 -6 26 -23 28
-13 2 -25 -3 -28 -12z m36 -16 c0 -11 -4 -20 -10 -20 -5 0 -10 9 -10 20 0 11
5 20 10 20 6 0 10 -9 10 -20z"/>
<path d="M1131 748 c0 -26 2 -29 8 -14 7 18 8 18 14 3 10 -27 27 -19 27 13 0
30 -14 41 -23 18 -4 -10 -6 -10 -6 0 -2 28 -21 9 -20 -20z"/>
<path d="M1200 750 c0 -25 4 -30 23 -29 21 0 21 1 2 8 -20 8 -20 8 0 13 16 5
17 6 3 7 -10 0 -18 5 -18 10 0 5 8 12 18 14 13 4 11 5 -5 6 -19 1 -23 -4 -23
-29z"/>
<path d="M1267 774 c-8 -9 1 -24 14 -24 6 0 7 4 4 10 -3 6 1 7 9 4 9 -3 16 -1
16 5 0 12 -32 15 -43 5z"/>
<path d="M1380 766 c0 -8 -2 -20 -5 -28 -3 -8 3 -13 20 -14 29 -2 28 -3 15 30
-10 28 -30 35 -30 12z"/>
<path d="M1440 748 c0 -26 3 -30 11 -18 8 11 12 12 16 3 9 -24 20 -13 15 17
-3 21 -10 30 -23 30 -15 0 -19 -7 -19 -32z"/>
<path d="M1506 772 c7 -4 14 -18 17 -32 l4 -25 2 27 c0 14 7 29 14 31 6 3 -1
6 -18 6 -16 0 -25 -3 -19 -7z"/>
<path d="M1570 750 c0 -24 4 -30 23 -30 16 0 18 3 8 9 -11 7 -11 9 0 14 9 3 7
6 -6 7 -20 1 -20 1 -1 15 19 15 19 15 -2 15 -18 0 -22 -6 -22 -30z"/>
<path d="M1640 765 c0 -8 5 -15 11 -15 5 0 7 4 4 10 -3 6 1 7 9 4 9 -3 16 -1
16 5 0 6 -9 11 -20 11 -11 0 -20 -7 -20 -15z"/>
<path d="M1710 756 c-5 -15 -10 -28 -10 -29 0 -1 11 -2 25 -2 20 0 24 4 19 20
-11 35 -23 39 -34 11z"/>
<path d="M1771 748 c0 -27 2 -30 9 -13 7 18 8 19 15 3 11 -28 25 -21 25 12 0
17 -5 30 -11 30 -6 0 -8 -8 -5 -17 6 -17 5 -17 -8 0 -19 25 -26 21 -25 -15z"/>
<path d="M1850 756 c-13 -36 -14 -34 15 -32 20 1 24 5 19 21 -11 35 -23 39
-34 11z"/>
<path d="M1910 750 c0 -25 4 -30 23 -29 12 0 16 3 10 6 -7 2 -13 16 -13 29 0
13 -4 24 -10 24 -5 0 -10 -13 -10 -30z"/>
<path d="M1970 750 c0 -25 4 -30 23 -29 21 0 21 1 2 8 -20 8 -20 8 0 13 16 5
17 6 3 7 -10 0 -18 5 -18 10 0 5 8 12 18 14 13 4 11 5 -5 6 -19 1 -23 -4 -23
-29z"/>
<path d="M2030 769 c0 -7 8 -18 18 -25 16 -13 16 -14 0 -8 -10 3 -18 1 -18 -5
0 -14 37 -14 45 0 4 6 -1 17 -11 25 -11 9 -13 13 -6 9 6 -3 12 -1 12 4 0 6 -9
11 -20 11 -11 0 -20 -5 -20 -11z"/>
<path d="M1290 740 c0 -5 -7 -6 -17 -3 -11 4 -14 3 -9 -5 10 -17 46 -15 46 3
0 8 -4 15 -10 15 -5 0 -10 -4 -10 -10z"/>
<path d="M1666 739 c4 -8 -1 -9 -16 -4 -15 5 -20 4 -16 -4 11 -16 46 -13 46 4
0 8 -5 15 -11 15 -5 0 -7 -5 -3 -11z"/>
</g>
</svg>
